<svg width="54" height="54" viewBox="0 0 54 54" fill="none" xmlns="http://www.w3.org/2000/svg">
<path fill-rule="evenodd" clip-rule="evenodd" d="M26.7441 0.59375C12.1179 0.59375 0.244141 12.4675 0.244141 27.0938C0.244141 41.7182 12.1179 53.5938 26.7441 53.5938C41.3704 53.5938 53.2441 41.7182 53.2441 27.0938C53.2441 12.4675 41.3704 0.59375 26.7441 0.59375ZM18.4673 22.7831C19.1793 23.094 19.5361 23.4791 19.5361 23.9349C19.5361 24.1257 19.446 24.4279 19.2676 24.8465C19.0909 25.2635 18.9408 25.6292 18.8171 25.9401L16.9798 30.4168C16.8119 30.908 16.5346 31.2525 16.1441 31.4539C15.9437 31.5382 15.7273 31.578 15.5099 31.5705C15.2351 31.5636 14.9717 31.4597 14.7661 31.2772C14.5597 31.1238 14.3961 30.9201 14.2909 30.6854L14.1566 30.4009C14.0665 30.1783 13.7379 29.3091 13.1708 27.7951C13.0595 28.0619 12.8952 28.5 12.6779 29.106C12.5078 29.5878 12.3294 30.0666 12.1426 30.5423C12.1041 30.6383 12.0568 30.7306 12.0013 30.8179C11.9276 30.9458 11.8379 31.064 11.7345 31.1694C11.6167 31.2952 11.4744 31.3956 11.3165 31.4646C11.1586 31.5335 10.9882 31.5696 10.8159 31.5705C10.5002 31.5812 10.1913 31.477 9.94667 31.2772C9.74354 31.1222 9.58257 30.9187 9.47851 30.6854L6.95571 24.5374C6.84441 24.2035 6.78964 23.9862 6.78964 23.8855C6.78964 23.4403 7.10587 23.0887 7.74187 22.8325C8.09697 22.6877 8.38671 22.6152 8.60931 22.6152C8.77379 22.6074 8.93747 22.6427 9.08407 22.7177C9.23067 22.7927 9.35508 22.9048 9.44494 23.0428C9.50038 23.1347 9.54541 23.2324 9.57921 23.3343C9.76824 23.7795 10.164 24.8271 10.7646 26.4754L11.7504 23.7689C11.8181 23.5444 11.945 23.3424 12.1179 23.1841C12.4412 22.8608 12.7698 22.7001 13.1037 22.7001C13.4121 22.6914 13.7147 22.7852 13.9641 22.9668C14.1677 23.1046 14.3365 23.2878 14.457 23.5021L14.5912 23.7848C15.1477 25.3448 15.4763 26.2351 15.577 26.4577L16.5946 23.6858C16.8632 22.9721 17.2642 22.6152 17.7977 22.6152C18.0097 22.6152 18.2323 22.6718 18.4673 22.7831ZM32.0477 22.7831C32.7614 23.094 33.1183 23.4791 33.1183 23.9349C33.1183 24.1257 33.0282 24.4279 32.8497 24.8465C32.694 25.2088 32.5439 25.5733 32.3992 25.9401L30.5619 30.4168C30.3941 30.908 30.1167 31.2525 29.7263 31.4539C29.5258 31.5381 29.3094 31.5778 29.092 31.5705C28.8172 31.5639 28.5536 31.46 28.3483 31.2772C28.1414 31.1238 27.9772 30.9201 27.8713 30.6854L27.7388 30.4009C27.6487 30.1783 27.3201 29.3091 26.753 27.7951C26.6417 28.0619 26.4774 28.5 26.2601 29.106C26.0919 29.5885 25.9134 30.0674 25.7248 30.5423C25.6862 30.6383 25.6389 30.7306 25.5834 30.8179C25.5097 30.9458 25.4201 31.064 25.3167 31.1694C25.1988 31.2952 25.0566 31.3956 24.8986 31.4646C24.7407 31.5335 24.5703 31.5696 24.398 31.5705C24.0823 31.5812 23.7734 31.477 23.5288 31.2772C23.3252 31.1227 23.1641 30.9191 23.0606 30.6854L20.5378 24.5374C20.4265 24.2035 20.3718 23.9862 20.3718 23.8855C20.3718 23.4403 20.688 23.0887 21.324 22.8325C21.6791 22.6877 21.9688 22.6152 22.1914 22.6152C22.3559 22.6077 22.5194 22.6432 22.666 22.7182C22.8125 22.7932 22.937 22.905 23.0271 23.0428C23.0825 23.1347 23.1275 23.2324 23.1613 23.3343C23.3504 23.7795 23.7461 24.8271 24.3468 26.4754L25.3326 23.7689C25.4002 23.5444 25.5271 23.3424 25.7 23.1841C26.0233 22.8608 26.3519 22.7001 26.6858 22.7001C27.0197 22.7001 27.3059 22.7884 27.5462 22.9668C27.7498 23.1046 27.9186 23.2878 28.0391 23.5021L28.1734 23.7848C28.7299 25.3448 29.0585 26.2351 29.1592 26.4577L30.1768 23.6858C30.4453 22.9721 30.8463 22.6152 31.3799 22.6152C31.5919 22.6152 31.8145 22.6718 32.0477 22.7831ZM45.6298 22.7831C46.3435 23.094 46.7004 23.4791 46.7004 23.9349C46.7004 24.1257 46.6103 24.4279 46.4319 24.8465C46.2762 25.2088 46.126 25.5733 45.9814 25.9401L44.144 30.4168C43.9762 30.908 43.6988 31.2525 43.3084 31.4539C43.1079 31.5381 42.8915 31.5778 42.6742 31.5705C42.3993 31.5639 42.1358 31.46 41.9304 31.2772C41.7231 31.1243 41.5587 30.9205 41.4534 30.6854L41.3209 30.4009C41.2308 30.1783 40.9022 29.3091 40.3351 27.7951C40.2238 28.0619 40.0595 28.5 39.8422 29.106C39.674 29.5885 39.4955 30.0674 39.3069 30.5423C39.2684 30.6383 39.2211 30.7306 39.1656 30.8179C39.0918 30.9458 39.0022 31.064 38.8988 31.1694C38.7807 31.2953 38.6381 31.3958 38.4799 31.4648C38.3216 31.5337 38.151 31.5697 37.9784 31.5705C37.6633 31.581 37.355 31.4768 37.1109 31.2772C36.9073 31.1227 36.7462 30.9191 36.6428 30.6854L34.12 24.5374C34.0087 24.2035 33.9521 23.9862 33.9521 23.8855C33.9521 23.4403 34.2701 23.0887 34.9044 22.8325C35.2612 22.6877 35.551 22.6152 35.7736 22.6152C35.938 22.6077 36.1016 22.6432 36.2481 22.7182C36.3946 22.7932 36.5191 22.905 36.6092 23.0428C36.6646 23.1347 36.7097 23.2324 36.7435 23.3343C36.9325 23.7795 37.3282 24.8271 37.9289 26.4754L38.9147 23.7689C38.9823 23.5444 39.1093 23.3424 39.2822 23.1841C39.6055 22.8608 39.9341 22.7001 40.268 22.7001C40.6019 22.7001 40.8881 22.7884 41.1283 22.9668C41.3311 23.1056 41.4997 23.2886 41.6212 23.5021L41.7555 23.7848C42.312 25.3448 42.6406 26.2351 42.7395 26.4577L43.7589 23.6858C44.0274 22.9721 44.4285 22.6152 44.962 22.6152C45.174 22.6152 45.3966 22.6718 45.6298 22.7831Z" fill="#A8A9B0"/>
</svg>
